# xmcd
#
# Track frame offsets:
#	150
#	20002
#	38828
#	55883
#	82208
#	98782
#	121432
#	140677
#	157628
#	174022
#	188423
#
# Disc length: 2683 seconds
# Revision: 0
# Processed by: cddbd v1.5.2PL0 Copyright (c) Steve Scherf et al.
# Submitted via: dBpowerAMP V12.0
#
DISCID=840a790b
DTITLE=Robert "Nighthawk" Tooms - Wampus Cats
DYEAR=2010
DGENRE=Blues
TTITLE0=Spectator Shoes
TTITLE1=Forgive And Forget
TTITLE2=Whooping And Hollering
TTITLE3=Memphis Mike's Onion Rings
TTITLE4=Feed The Monkey
TTITLE5=Cotton's Sack
TTITLE6=Ode To Jimmy McGriff
TTITLE7=High Fidelity Blues
TTITLE8=You Sold Me Out Again
TTITLE9=Next Time You See Me
TTITLE10=Crumpy-ta-lump
EXTD=
EXTT0=
EXTT1=
EXTT2=
EXTT3=
EXTT4=
EXTT5=
EXTT6=
EXTT7=
EXTT8=
EXTT9=
EXTT10=
PLAYORDER=
